<?xml version="1.0" encoding="UTF-8"?>
<svg version="1.1" xmlns="http://www.w3.org/2000/svg" width="819" height="233">
<path d="M0 0 C16.20402678 -0.22049425 32.40613105 -0.35401828 48.61152172 -0.38603115 C56.13740166 -0.40289217 63.66115576 -0.44744314 71.1862793 -0.55883789 C77.75088453 -0.65594198 84.31336505 -0.69940532 90.87869722 -0.68036038 C94.35124226 -0.67211073 97.81913346 -0.68941593 101.29082298 -0.77114677 C124.04776504 -1.27940866 124.04776504 -1.27940866 130.48794556 4.25045776 C133.37824426 7.29172805 135.66687298 10.56691205 137.8220768 14.15672112 C139.65073251 17.01830195 141.89612808 19.30706715 144.25 21.75 C147.43716583 25.22457531 150.47876697 28.76657637 153.4375 32.4375 C157.57061189 37.5581696 161.9559183 42.38740118 166.42578125 47.2109375 C169.14641434 50.15863405 171.80683162 53.14893683 174.4296875 56.18359375 C175.52909692 57.45529868 176.63944086 58.71759474 177.7578125 59.97265625 C178.31210938 60.60042969 178.86640625 61.22820312 179.4375 61.875 C180.17806641 62.70644531 180.17806641 62.70644531 180.93359375 63.5546875 C182 65 182 65 182 67 C182.66 67 183.32 67 184 67 C185.35097374 68.51151546 186.62927345 70.08813313 187.875 71.6875 C191.94733618 76.79439408 196.23732556 81.59753198 200.74951172 86.3190918 C204.21621249 89.99249038 207.13473189 93.83804121 210 98 C208.38076392 99.61923608 206.60116091 99.14173699 204.36204529 99.15821838 C202.85805679 99.17290161 202.85805679 99.17290161 201.32368469 99.18788147 C200.21454208 99.19363693 199.10539948 99.1993924 197.96264648 99.20532227 C196.80182556 99.21522186 195.64100464 99.22512146 194.44500732 99.23532104 C190.58705727 99.26704695 186.72909487 99.29173716 182.87109375 99.31640625 C180.20450911 99.33696622 177.53793036 99.35791366 174.87135315 99.37937927 C168.5567447 99.42935633 162.2421107 99.47427649 155.92745215 99.51740164 C148.74011088 99.56673127 141.55281592 99.62166519 134.3655194 99.67708123 C119.57705684 99.79097819 104.78854814 99.89780035 90 100 C90.81404297 100.87462891 91.62808594 101.74925781 92.46679688 102.65039062 C93.55086557 103.8189322 94.63484521 104.98755639 95.71875 106.15625 C96.25338867 106.73020508 96.78802734 107.30416016 97.33886719 107.89550781 C100.52416271 111.33406843 103.5701113 114.83763913 106.5 118.5 C109.84302158 122.66666457 113.35116931 126.60417858 117 130.5 C121.47918092 135.28314041 125.68451631 140.20815208 129.7890625 145.3203125 C132.1093495 148.13253315 134.53071134 150.81797263 137 153.5 C140.29331699 157.07792463 143.44651321 160.71539666 146.5 164.5 C150.41369281 169.35048098 154.54611739 173.95468407 158.7578125 178.546875 C166 186.47038328 166 186.47038328 166 189 C166.66 189 167.32 189 168 189 C169.43581474 190.61457079 170.80144783 192.29219075 172.125 194 C172.84945312 194.928125 173.57390625 195.85625 174.3203125 196.8125 C174.87460938 197.534375 175.42890625 198.25625 176 199 C172.23026153 201.44796505 168.41331099 201.32949809 164.06958008 201.36987305 C163.27390625 201.38462173 162.47823242 201.39937042 161.65844727 201.41456604 C159.02882118 201.45903592 156.39941663 201.48730398 153.76953125 201.51171875 C152.86873022 201.52111795 151.96792919 201.53051716 151.03983116 201.54020119 C146.27030938 201.58774674 141.50089716 201.62143744 136.73120117 201.64526367 C131.81895029 201.67294489 126.90893419 201.7520963 121.99750233 201.84280682 C118.20805257 201.90278258 114.4191291 201.92254599 110.62924767 201.93177223 C108.81952456 201.94331762 107.00982873 201.97006647 105.20057106 202.01270103 C91.07640173 202.32575984 91.07640173 202.32575984 85.91494751 199.03022766 C83.65570198 196.80002414 81.81086005 194.59996607 80 192 C79.21109375 191.07832031 78.4221875 190.15664062 77.609375 189.20703125 C76.99578125 188.41683594 76.3821875 187.62664062 75.75 186.8125 C71.10673242 181.01248856 66.08284825 175.63310088 61.00390625 170.21875 C58.17628991 167.20216146 55.43947977 164.11845423 52.73828125 160.98828125 C50.52743511 158.45947072 48.26403557 155.98127436 46 153.5 C40.99198449 148.0032142 36.07789011 142.43999706 31.25390625 136.78125 C25.67905324 130.24524653 20.04716361 123.79057547 14.2421875 117.45703125 C11.10526325 114.01953064 8.05063581 110.51393331 5 107 C3.6880486 105.49952015 2.37555767 103.99951186 1.0625 102.5 C0.04166667 101.33333333 -0.97916667 100.16666667 -2 99 C-1.505 98.01 -1.505 98.01 -1 97 C41.57 97.495 41.57 97.495 85 98 C79.34521811 91.53157828 79.34521811 91.53157828 73.625 85.125 C72.86703125 84.28453125 72.1090625 83.4440625 71.328125 82.578125 C70.55984375 81.72734375 69.7915625 80.8765625 69 80 C62.69371279 73.01652758 56.41071974 66.02094383 50.3203125 58.84765625 C44.72424835 52.26524878 39.04029055 45.7988867 33.15185547 39.47607422 C29.97673475 36.06630254 26.8802242 32.60488198 23.83203125 29.08203125 C21.46749385 26.39482776 19.0475038 23.7597936 16.625 21.125 C16.15852051 20.61654541 15.69204102 20.10809082 15.21142578 19.58422852 C12.91080597 17.07695906 10.60562505 14.57432545 8.29296875 12.078125 C7.47441406 11.18609375 6.65585937 10.2940625 5.8125 9.375 C5.07644531 8.57835937 4.34039062 7.78171875 3.58203125 6.9609375 C2 5 2 5 2 3 C1.01 2.67 0.02 2.34 -1 2 C-0.67 1.34 -0.34 0.68 0 0 Z " fill="#A8A8A8" transform="translate(27,14)"/>
<path d="M0 0 C11.43685113 9.08805074 18.4186565 22.77014917 21 37 C22.492285 56.80519488 19.96555438 74.76746072 6.6875 90.3125 C2.54908284 94.69394501 -1.77216458 98.02602565 -7 101 C-8.00353516 101.58394531 -8.00353516 101.58394531 -9.02734375 102.1796875 C-19.61616392 107.92490874 -32.76202596 108.93676695 -44.375 105.875 C-51.40137286 103.40405888 -56.78190311 99.21809689 -62 94 C-62.33 110.17 -62.66 126.34 -63 143 C-65.85835486 144.42917743 -68.31257719 144.12980809 -71.50390625 144.1328125 C-72.80134766 144.13410156 -74.09878906 144.13539063 -75.43554688 144.13671875 C-76.45056274 144.13357666 -76.45056274 144.13357666 -77.48608398 144.13037109 C-79.55785415 144.12501202 -81.62940839 144.13032518 -83.70117188 144.13671875 C-85.64540039 144.13478516 -85.64540039 144.13478516 -87.62890625 144.1328125 C-88.82588135 144.13168457 -90.02285645 144.13055664 -91.25610352 144.12939453 C-94 144 -94 144 -95 143 C-95.09662973 141.063717 -95.12187144 139.12385738 -95.12025452 137.18516541 C-95.12162918 135.92166763 -95.12300385 134.65816986 -95.12442017 133.35638428 C-95.12088055 131.94323707 -95.11724574 130.5300901 -95.11352539 129.11694336 C-95.11324353 127.63898216 -95.11340124 126.16102081 -95.1139679 124.68305969 C-95.1142559 120.65844172 -95.1083587 116.63385328 -95.10139394 112.6092422 C-95.09516088 108.40783635 -95.09455664 104.2064299 -95.09336853 100.00502014 C-95.09025507 92.04353743 -95.08204149 84.08206838 -95.07201904 76.1205917 C-95.06085836 67.05907411 -95.05534757 57.99755588 -95.05032361 48.93603313 C-95.03985888 30.29067942 -95.02151322 11.64534446 -95 -7 C-85.1 -7 -75.2 -7 -65 -7 C-64.67 -3.37 -64.34 0.26 -64 4 C-62.68 2.7625 -61.36 1.525 -60 0.25 C-42.75027389 -15.02910012 -18.11219873 -12.83680104 0 0 Z M-59.23828125 27.29296875 C-63.7577417 34.23750554 -64.50255315 41.37426988 -64.4375 49.5 C-64.45748047 50.38558594 -64.47746094 51.27117187 -64.49804688 52.18359375 C-64.49118347 61.53155113 -61.2098386 68.56583232 -54.83984375 75.33984375 C-49.33269225 80.30914182 -42.172434 81.16748816 -35 81 C-26.94979075 79.6004665 -20.654523 76.59937424 -15.8125 69.875 C-9.3454096 59.4529698 -8.35983733 48.07111577 -11.125 36.1875 C-13.72206487 27.85019363 -18.64440733 22.49508441 -26 18 C-39.21825472 13.4176717 -50.34134976 17.56589761 -59.23828125 27.29296875 Z " fill="#A8A8A9" transform="translate(601,79)"/>
<path d="M0 0 C11.07471643 10.08166193 17.20909609 25.22111865 18.62890625 39.88671875 C19.34808791 55.303023 15.84515873 69.56576089 6.81640625 82.26171875 C6.36652344 82.89464844 5.91664063 83.52757812 5.453125 84.1796875 C-2.16255824 93.89772837 -14.9276695 100.98183805 -27.0703125 102.9765625 C-45.76095126 104.68850306 -62.38468548 102.8985438 -77.83984375 91.26171875 C-89.72697382 81.23642833 -95.91778094 68.12336471 -97.9296875 52.84375 C-99.25120793 34.20014644 -95.17974811 17.5423083 -82.99609375 3.07421875 C-60.96879679 -20.38964106 -24.12014105 -19.20118563 0 0 Z M-57.140625 18.375 C-65.09921968 25.72490675 -66.67626455 34.86937079 -67.49609375 45.19921875 C-67.21979519 54.13287222 -64.73611001 62.75702304 -58.32421875 69.1015625 C-51.16362258 75.68338868 -45.5383993 76.83636942 -35.8515625 76.5703125 C-28.44257687 75.94697931 -23.74352482 72.58818667 -18.72265625 67.2578125 C-12.12851601 58.70551386 -11.51550719 48.68386904 -12.18359375 38.26171875 C-13.71470576 29.65373471 -17.18570338 22.15256984 -24.30859375 16.88671875 C-35.00563249 10.39398877 -47.095485 11.03226934 -57.140625 18.375 Z " fill="#A7A7A8" transform="translate(476.18359375,82.73828125)"/>
<path d="M0 0 C14.52229763 11.32355366 22.40052582 24.74322783 25 43 C26.47501302 60.01316386 21.4847846 77.25797716 10.625 90.5625 C-0.25256368 101.7101612 -15.25843909 108.07597874 -30.78491211 108.38061523 C-47.52446557 108.34044729 -62.08493974 104.56514918 -74.75 92.9375 C-82.610881 84.5477961 -87.84887342 74.27487035 -90 63 C-90.3403125 61.2984375 -90.3403125 61.2984375 -90.6875 59.5625 C-92.32090392 40.9416953 -89.06035567 23.74043471 -77 9 C-76.34 9 -75.68 9 -75 9 C-74.67 8.01 -74.34 7.02 -74 6 C-68.31774522 1.13662903 -61.97858748 -3.24319159 -55 -6 C-54.26265625 -6.29777344 -53.5253125 -6.59554687 -52.765625 -6.90234375 C-35.87592072 -12.59343976 -14.63320227 -9.98014835 0 0 Z M-55.23828125 28.390625 C-59.49822064 34.70024697 -60.53408881 40.80062834 -60.4375 48.3125 C-60.42920166 49.14628174 -60.42090332 49.98006348 -60.41235352 50.83911133 C-60.14194829 60.74210124 -57.66408862 68.16949394 -50.734375 75.41015625 C-44.48109423 81.14233029 -38.43101145 81.29717705 -30.26171875 81.21484375 C-24.2323295 80.81769835 -19.03744315 78.8957025 -14.44921875 74.78515625 C-6.80496279 65.36891643 -5.08392647 54.74122411 -6 43 C-7.79247537 33.84301155 -10.50460313 27.03133241 -18.08203125 21.47265625 C-31.78420714 13.26952939 -45.32668384 17.37327128 -55.23828125 28.390625 Z " fill="#A7A7A7" transform="translate(770,78)"/>
<path d="M0 0 C3.92100657 3.92100657 2.84681445 10.63608373 2.91723633 15.91772461 C2.64533509 25.14452536 -0.14158714 29.59863892 -6.6484375 35.82421875 C-7.21272461 36.3454834 -7.77701172 36.86674805 -8.35839844 37.40380859 C-11.02164318 39.99338238 -13.20237775 42.91704203 -15.4375 45.875 C-16.33643837 47.03548648 -17.237514 48.19432027 -18.140625 49.3515625 C-18.82995117 50.23569824 -18.82995117 50.23569824 -19.53320312 51.13769531 C-22.21269432 54.53968579 -24.95134145 57.89354568 -27.6875 61.25 C-28.23849365 61.92651611 -28.7894873 62.60303223 -29.35717773 63.30004883 C-30.41949004 64.60425327 -31.48190461 65.90837442 -32.54443359 67.21240234 C-38.92626852 75.004575 -38.92626852 75.004575 -44.875 83.125 C-45.57625 84.07375 -46.2775 85.0225 -47 86 C-47.66 86 -48.32 86 -49 86 C-49 86.66 -49 87.32 -49 88 C-48.3758168 87.98525131 -47.75163361 87.97050262 -47.10853577 87.95530701 C-40.63669421 87.80337789 -34.16472244 87.65851041 -27.69262695 87.51782227 C-25.27429152 87.46431279 -22.8559958 87.40897687 -20.43774414 87.35180664 C-16.97030201 87.27014458 -13.50277206 87.1949613 -10.03515625 87.12109375 C-8.94662857 87.09405869 -7.85810089 87.06702362 -6.73658752 87.03916931 C-5.73562546 87.01907303 -4.73466339 86.99897675 -3.70336914 86.97827148 C-2.81734512 86.95828598 -1.93132111 86.93830048 -1.01844788 86.91770935 C1 87 1 87 2 88 C2.08737645 89.85369611 2.10698153 91.71067541 2.09765625 93.56640625 C2.09282227 95.2534668 2.09282227 95.2534668 2.08789062 96.97460938 C2.07532227 98.75061523 2.07532227 98.75061523 2.0625 100.5625 C2.05798828 101.75037109 2.05347656 102.93824219 2.04882812 104.16210938 C2.03699675 107.10812226 2.02051287 110.05403681 2 113 C-1.24699271 114.62349635 -4.81380693 114.13816373 -8.38110352 114.12939453 C-9.24785706 114.13114685 -10.1146106 114.13289917 -11.00762939 114.13470459 C-13.88140853 114.13911697 -16.75512646 114.13618751 -19.62890625 114.1328125 C-21.61905428 114.13348565 -23.60920223 114.13445577 -25.59934998 114.13571167 C-29.77319114 114.13718776 -33.94701093 114.13503669 -38.12084961 114.13037109 C-43.48358897 114.12467017 -48.84627832 114.12795568 -54.20901585 114.13394356 C-58.31894816 114.13754841 -62.42886853 114.136411 -66.53880119 114.13381577 C-68.5168553 114.13314648 -70.49491047 114.13397499 -72.47296333 114.13629532 C-75.23143537 114.13882099 -77.98982514 114.13498263 -80.74829102 114.12939453 C-81.57376938 114.13141876 -82.39924774 114.13344299 -83.2497406 114.13552856 C-88.88573677 114.11426323 -88.88573677 114.11426323 -90 113 C-90.0990473 111.47392411 -90.13079611 109.94334793 -90.1328125 108.4140625 C-90.13410156 107.48335938 -90.13539063 106.55265625 -90.13671875 105.59375 C-90.13285156 104.6140625 -90.12898438 103.634375 -90.125 102.625 C-90.12886719 101.65304688 -90.13273437 100.68109375 -90.13671875 99.6796875 C-90.13542969 98.74640625 -90.13414062 97.813125 -90.1328125 96.8515625 C-90.13168457 95.99385254 -90.13055664 95.13614258 -90.12939453 94.25244141 C-90 92 -90 92 -89 89 C-88.34 89 -87.68 89 -87 89 C-86.72325439 88.40864258 -86.44650879 87.81728516 -86.16137695 87.20800781 C-85.06555088 85.12462522 -83.91090403 83.48268852 -82.41796875 81.671875 C-81.64815674 80.73190674 -81.64815674 80.73190674 -80.86279297 79.77294922 C-80.30994629 79.10537598 -79.75709961 78.43780273 -79.1875 77.75 C-78.00645023 76.30994519 -76.82546239 74.8698396 -75.64453125 73.4296875 C-75.03947754 72.69459961 -74.43442383 71.95951172 -73.81103516 71.20214844 C-70.98764556 67.7690163 -68.1797029 64.32340521 -65.375 60.875 C-64.83738037 60.21443604 -64.29976074 59.55387207 -63.74584961 58.87329102 C-59.37499444 53.49026566 -55.08564106 48.04718697 -50.828125 42.57421875 C-46.94583262 37.66773046 -42.96195492 32.84238935 -39 28 C-54.84 27.67 -70.68 27.34 -87 27 C-88.63430113 18.82849437 -87.41614681 10.32293616 -87 2 C-58.29 2 -29.58 2 0 2 C0 1.34 0 0.68 0 0 Z " fill="#A7A7A8" transform="translate(370,70)"/>
<path d="M0 0 C10.56 0 21.12 0 32 0 C32 36.96 32 73.92 32 112 C21.44 112 10.88 112 0 112 C-0.92443978 109.22668066 -1.1255605 107.58458401 -1.12698364 104.72463989 C-1.12980347 103.85266968 -1.13262329 102.98069946 -1.13552856 102.08230591 C-1.13350433 101.12847015 -1.1314801 100.1746344 -1.12939453 99.19189453 C-1.13114685 98.18511658 -1.13289917 97.17833862 -1.13470459 96.14105225 C-1.13911435 92.80495492 -1.13618772 89.46891039 -1.1328125 86.1328125 C-1.1334859 83.81737254 -1.13445622 81.50193264 -1.13571167 79.18649292 C-1.13718754 74.32923714 -1.135038 69.47199974 -1.13037109 64.61474609 C-1.12468024 58.38813879 -1.12794944 52.16157466 -1.13394356 45.93496895 C-1.13755755 41.15147578 -1.1364066 36.36799284 -1.13381577 31.58449936 C-1.13314849 29.28877635 -1.13396796 26.99305241 -1.13629532 24.69733047 C-1.13883485 21.48716017 -1.13496251 18.27705964 -1.12939453 15.06689453 C-1.13141876 14.11710724 -1.13344299 13.16731995 -1.13552856 12.18875122 C-1.13270874 11.31114136 -1.12988892 10.43353149 -1.12698364 9.52932739 C-1.12660662 8.77090105 -1.12622959 8.01247471 -1.12584114 7.23106575 C-1 5 -1 5 0 0 Z " fill="#A8A8A8" transform="translate(635,72)"/>
<path d="M0 0 C10.56 0 21.12 0 32 0 C32.185625 4.269375 32.37125 8.53875 32.5625 12.9375 C32.62381104 14.28577881 32.68512207 15.63405762 32.74829102 17.02319336 C32.79139404 18.07643799 32.83449707 19.12968262 32.87890625 20.21484375 C32.9260376 21.29886475 32.97316895 22.38288574 33.02172852 23.49975586 C33 26 33 26 32 27 C29.6243148 27.0883967 27.27791326 27.11530305 24.90234375 27.09765625 C23.83905602 27.09553383 23.83905602 27.09553383 22.75428772 27.09336853 C20.48198288 27.08775443 18.20977525 27.07519963 15.9375 27.0625 C14.40039204 27.05748681 12.86328255 27.05292359 11.32617188 27.04882812 C7.55071333 27.0386297 3.77546596 27.01905732 0 27 C0 18.09 0 9.18 0 0 Z " fill="#A8A9A9" transform="translate(635,32)"/>
<path d="M0 0 C9.24 0 18.48 0 28 0 C28 4.29 28 8.58 28 13 C27.67 13 27.34 13 27 13 C27 9.04 27 5.08 27 1 C25.47375 1.165 23.9475 1.33 22.375 1.5 C15.60208843 2.03120875 8.79371135 2 2 2 C2 49.85 2 97.7 2 147 C10.58 147 19.16 147 28 147 C28 130.17 28 113.34 28 96 C28.66 96 29.32 96 30 96 C30 113.82 30 131.64 30 150 C20.1 150 10.2 150 0 150 C0 100.5 0 51 0 0 Z " fill="#989998" transform="translate(507,73)"/>
<path d="M0 0 C62.37 0.495 62.37 0.495 126 1 C126 1.33 126 1.66 126 2 C63.63 2.495 63.63 2.495 0 3 C0 2.01 0 1.02 0 0 Z " fill="#B4B4B3" transform="translate(27,14)"/>
<path d="M0 0 C0 0.33 0 0.66 0 1 C-7.26 1 -14.52 1 -22 1 C-16.77056888 -4.22943112 -6.26091211 -2.50436484 0 0 Z " fill="#A2A1A0" transform="translate(575,95)"/>
<path d="M0 0 C1.9375 1.0625 1.9375 1.0625 4 3 C5.12231474 7.88923281 5.19011903 12.80744922 5.25 17.8125 C5.27578125 19.11832031 5.3015625 20.42414063 5.328125 21.76953125 C5.21984375 22.83558594 5.1115625 23.90164062 5 25 C4.01 25.66 3.02 26.32 2 27 C2.03480469 25.33324219 2.03480469 25.33324219 2.0703125 23.6328125 C2.18695202 15.52545492 2.17056355 7.88767289 0 0 Z " fill="#B1B1B1" transform="translate(761,111)"/>
<path d="M0 0 C0.66 0.33 1.32 0.66 2 1 C1.53234153 5.7190991 -0.34934594 7.91832317 -3.5625 11.3125 C-4.38878906 12.19550781 -5.21507812 13.07851562 -6.06640625 13.98828125 C-6.70449219 14.65214844 -7.34257812 15.31601563 -8 16 C-8.66 15.67 -9.32 15.34 -10 15 C-9.16855469 14.00419922 -9.16855469 14.00419922 -8.3203125 12.98828125 C-7.59585937 12.10527344 -6.87140625 11.22226563 -6.125 10.3125 C-5.40570313 9.44238281 -4.68640625 8.57226562 -3.9453125 7.67578125 C-2.11067624 5.1522354 -1.00532771 2.93661514 0 0 Z " fill="#9F9F9F" transform="translate(363,99)"/>
<path d="M0 0 C0.56203125 0.22171875 1.1240625 0.4434375 1.703125 0.671875 C1.043125 0.671875 0.383125 0.671875 -0.296875 0.671875 C-0.626875 1.661875 -0.956875 2.651875 -1.296875 3.671875 C-3.60056236 4.73839692 -5.93705687 5.73608505 -8.296875 6.671875 C-9.286875 7.331875 -10.276875 7.991875 -11.296875 8.671875 C-11.296875 7.681875 -11.296875 6.691875 -11.296875 5.671875 C-9.46875 4.03125 -9.46875 4.03125 -7.046875 2.421875 C-5.86351562 1.60976562 -5.86351562 1.60976562 -4.65625 0.78125 C-2.296875 -0.328125 -2.296875 -0.328125 0 0 Z " fill="#A0A0A0" transform="translate(552.296875,73.328125)"/>
<path d="M0 0 C2.93804996 -0.08086376 5.87388075 -0.1404283 8.8125 -0.1875 C9.64587891 -0.21263672 10.47925781 -0.23777344 11.33789062 -0.26367188 C12.54155273 -0.27817383 12.54155273 -0.27817383 13.76953125 -0.29296875 C14.87711792 -0.31653442 14.87711792 -0.31653442 16.00708008 -0.34057617 C18 0 18 0 21 3 C14.07 2.34 7.14 1.68 0 1 C0 0.67 0 0.34 0 0 Z " fill="#9C9B9A" transform="translate(565,70)"/>
<path d="M0 0 C0.69738281 0.00451172 1.39476562 0.00902344 2.11328125 0.01367188 C3.82555803 0.0253998 5.53779033 0.04333347 7.25 0.0625 C7.25 0.3925 7.25 0.7225 7.25 1.0625 C1.805 1.5575 1.805 1.5575 -3.75 2.0625 C-3.75 2.7225 -3.75 3.3825 -3.75 4.0625 C-5.07 4.0625 -6.39 4.0625 -7.75 4.0625 C-7.75 3.4025 -7.75 2.7425 -7.75 2.0625 C-9.07 1.7325 -10.39 1.4025 -11.75 1.0625 C-7.88276369 -0.20332219 -4.01848738 -0.0493765 0 0 Z " fill="#BBBBBB" transform="translate(569.75,68.9375)"/>
<path d="M0 0 C0.33 0 0.66 0 1 0 C1 1.98 1 3.96 1 6 C1.66 6 2.32 6 3 6 C2.67 10.29 2.34 14.58 2 19 C1.67 19 1.34 19 1 19 C-0.15316726 12.65758005 -0.09507063 6.43311296 0 0 Z " fill="#BABBBA" transform="translate(679,122)"/>
<path d="M0 0 C3.65353155 1.43643121 4.93978166 3.05835031 6.75 6.5 C7.17796875 7.2940625 7.6059375 8.088125 8.046875 8.90625 C9 11 9 11 9 13 C8.34 13 7.68 13 7 13 C5.52734375 10.91796875 5.52734375 10.91796875 3.9375 8.1875 C3.41027344 7.29417969 2.88304687 6.40085937 2.33984375 5.48046875 C1 3 1 3 0 0 Z " fill="#A1A1A0" transform="translate(480,90)"/>
<path d="M0 0 C3.26008643 3.16952847 6.22237877 6.39937989 9 10 C5.54537888 9.74410214 4.72618453 8.71373837 2.25 6.125 C0 3 0 3 0 0 Z " fill="#A1A09F" transform="translate(36,122)"/>
<path d="M0 0 C1.32 0.33 2.64 0.66 4 1 C0.04 4.465 0.04 4.465 -4 8 C-4.66 7.67 -5.32 7.34 -6 7 C-4.02 4.69 -2.04 2.38 0 0 Z " fill="#9C9D9C" transform="translate(702,79)"/>
<path d="M0 0 C3.7910119 1.44950455 7.3874638 3.15172566 11 5 C11 5.33 11 5.66 11 6 C3.25531915 5.25531915 3.25531915 5.25531915 0 2 C0 1.34 0 0.68 0 0 Z " fill="#A1A19F" transform="translate(546,177)"/>
<path d="M0 0 C3.057952 1.73559438 5.63379989 3.38472619 8 6 C7.67 6.99 7.34 7.98 7 9 C5.82737096 7.88121617 4.66204862 6.75476949 3.5 5.625 C2.8503125 4.99851563 2.200625 4.37203125 1.53125 3.7265625 C0 2 0 2 0 0 Z " fill="#A1A1A0" transform="translate(160,166)"/>
<path d="M0 0 C2.88437779 1.29299694 4.87219421 2.65941363 7 5 C6.67 5.99 6.34 6.98 6 8 C4.99403703 7.0479279 3.99538437 6.08812654 3 5.125 C2.443125 4.59132813 1.88625 4.05765625 1.3125 3.5078125 C0 2 0 2 0 0 Z " fill="#A1A1A1" transform="translate(174,42)"/>
<path d="M0 0 C3.24299151 2.38957269 5.50902342 4.2047869 7 8 C4.24542282 7.62005832 3.17979426 7.1926367 1.25 5.125 C0 3 0 3 0 0 Z " fill="#A2A1A0" transform="translate(44,32)"/>
<path d="M0 0 C0.99 0 1.98 0 3 0 C5.25 2.3125 5.25 2.3125 7 5 C6.67 5.99 6.34 6.98 6 8 C4.9970458 6.85675161 3.99770973 5.71032809 3 4.5625 C2.443125 3.92441406 1.88625 3.28632812 1.3125 2.62890625 C0 1 0 1 0 0 Z " fill="#A1A0A0" transform="translate(187,57)"/>
<path d="M0 0 C2 1.375 2 1.375 4 3 C4 3.66 4 4.32 4 5 C4.66 5 5.32 5 6 5 C6 5.66 6 6.32 6 7 C4.125 6.6875 4.125 6.6875 2 6 C0 3 0 3 0 0 Z " fill="#A1A1A0" transform="translate(52,140)"/>
<path d="M0 0 C0.33 0.66 0.66 1.32 1 2 C1.66 2 2.32 2 3 2 C3 4.31 3 6.62 3 9 C2.34 9 1.68 9 1 9 C0.67 6.03 0.34 3.06 0 0 Z " fill="#A0A09F" transform="translate(618,109)"/>
<path d="M0 0 C0.66 0 1.32 0 2 0 C3.85776765 3.13498292 4.20140476 5.37471432 4 9 C1.49701566 6.06171403 0.53069061 3.82097239 0 0 Z " fill="#9F9F9D" transform="translate(786,98)"/>
<path d="M0 0 C3.83736322 0.95934081 4.59660228 1.23609263 7 4 C6.67 4.99 6.34 5.98 6 7 C4.02 4.69 2.04 2.38 0 0 Z " fill="#9E9E9D" transform="translate(773,83)"/>
<path d="M0 0 C2.46800047 1.15173355 4.04783565 2.04783565 6 4 C5.67 4.99 5.34 5.98 5 7 C3.29115995 5.37660195 1.62553283 3.70680947 0 2 C0 1.34 0 0.68 0 0 Z " fill="#A2A1A1" transform="translate(195,66)"/>
<path d="M0 0 C0.33 0 0.66 0 1 0 C1 1.65 1 3.3 1 5 C0.67 5 0.34 5 0 5 C0 3.35 0 1.7 0 0 Z " fill="#B7B7B6" transform="translate(762,126)"/>
<path d="M0 0 C0.99 0 1.98 0 3 0 C2.67 0.66 2.34 1.32 2 2 C1.34 1.34 0.68 0.68 0 0 Z " fill="#B9B7B9" transform="translate(739,97)"/>
<path d="M0 0 C3 1 3 1 3 1 Z " fill="#B8B9B7" transform="translate(429,187)"/>
<path d="M0 0 C0.66 0.66 1.32 1.32 2 2 C1.34 2 0.68 2 0 2 C0 1.34 0 0.68 0 0 Z " fill="#BAB8B7" transform="translate(556,185)"/>
<path d="M0 0 C0.33 0.66 0.66 1.32 1 2 C0.34 1.67 -0.32 1.34 -1 1 C-0.67 0.67 -0.34 0.34 0 0 Z " fill="#B9B9B8" transform="translate(420,185)"/>
<path d="M0 0 C3 1 3 1 3 1 Z " fill="#BBBBBB" transform="translate(140,114)"/>
<path d="M0 0 C2 1 2 1 2 1 Z " fill="#B8B7B7" transform="translate(742,187)"/>
<path d="M0 0 C2 1 2 1 2 1 Z " fill="#B8B6B6" transform="translate(732,187)"/>
<path d="M0 0 C2 1 2 1 2 1 Z " fill="#B8B7B6" transform="translate(438,187)"/>
<path d="M0 0 C2 1 2 1 2 1 Z " fill="#B5B4B5" transform="translate(725,186)"/>
<path d="" fill="#B9B8B7" transform="translate(0,0)"/>
<path d="" fill="#B5B6B6" transform="translate(0,0)"/>
<path d="" fill="#B5B6B5" transform="translate(0,0)"/>
<path d="M0 0 C2 1 2 1 2 1 Z " fill="#BDBDBC" transform="translate(196,114)"/>
<path d="M0 0 C2 1 2 1 2 1 Z " fill="#B6B6B5" transform="translate(747,99)"/>
<path d="" fill="#B7B6B6" transform="translate(0,0)"/>
<path d="" fill="#B8B6B6" transform="translate(0,0)"/>
<path d="" fill="#BAB8B9" transform="translate(0,0)"/>
<path d="" fill="#B6B6B5" transform="translate(0,0)"/>
<path d="" fill="#B9B8B8" transform="translate(0,0)"/>
<path d="" fill="#B6B7B6" transform="translate(0,0)"/>
<path d="" fill="#B6B6B5" transform="translate(0,0)"/>
<path d="" fill="#B9B8B9" transform="translate(0,0)"/>
<path d="" fill="#B8B7B7" transform="translate(0,0)"/>
<path d="" fill="#BBBAB8" transform="translate(0,0)"/>
<path d="" fill="#BABABA" transform="translate(0,0)"/>
<path d="" fill="#BCBAB8" transform="translate(0,0)"/>
<path d="" fill="#B9B9B8" transform="translate(0,0)"/>
<path d="" fill="#B9B9B7" transform="translate(0,0)"/>
<path d="" fill="#B8B9B6" transform="translate(0,0)"/>
<path d="" fill="#B7B6B4" transform="translate(0,0)"/>
<path d="" fill="#BAB9B8" transform="translate(0,0)"/>
<path d="" fill="#B6B6B3" transform="translate(0,0)"/>
<path d="" fill="#BBB9B8" transform="translate(0,0)"/>
<path d="" fill="#BCBAB8" transform="translate(0,0)"/>
<path d="" fill="#B8B8B6" transform="translate(0,0)"/>
<path d="" fill="#B4B4B3" transform="translate(0,0)"/>
<path d="" fill="#B7B5B5" transform="translate(0,0)"/>
<path d="" fill="#B8B7B7" transform="translate(0,0)"/>
<path d="" fill="#BABAB9" transform="translate(0,0)"/>
<path d="" fill="#B3B3B1" transform="translate(0,0)"/>
<path d="" fill="#BBBBBB" transform="translate(0,0)"/>
<path d="" fill="#B6B6B6" transform="translate(0,0)"/>
<path d="" fill="#B8B6B6" transform="translate(0,0)"/>
<path d="" fill="#BCBAB8" transform="translate(0,0)"/>
<path d="" fill="#BAB9BA" transform="translate(0,0)"/>
<path d="" fill="#B9B7B8" transform="translate(0,0)"/>
<path d="" fill="#B9BAB7" transform="translate(0,0)"/>
<path d="" fill="#BDBCBB" transform="translate(0,0)"/>
<path d="" fill="#BFBDBD" transform="translate(0,0)"/>
<path d="" fill="#BEBEBE" transform="translate(0,0)"/>
<path d="" fill="#BDBEBE" transform="translate(0,0)"/>
<path d="" fill="#BEBDBD" transform="translate(0,0)"/>
<path d="" fill="#BCBCBB" transform="translate(0,0)"/>
<path d="" fill="#BEBCBC" transform="translate(0,0)"/>
<path d="" fill="#BFBDBD" transform="translate(0,0)"/>
<path d="" fill="#BFBEBD" transform="translate(0,0)"/>
<path d="" fill="#BEBCBD" transform="translate(0,0)"/>
<path d="" fill="#BABBBB" transform="translate(0,0)"/>
<path d="" fill="#BCBDBC" transform="translate(0,0)"/>
<path d="" fill="#BAB7B7" transform="translate(0,0)"/>
<path d="" fill="#B8B6B9" transform="translate(0,0)"/>
<path d="" fill="#B8B9BA" transform="translate(0,0)"/>
<path d="" fill="#B8B6B8" transform="translate(0,0)"/>
<path d="" fill="#B8B8B8" transform="translate(0,0)"/>
<path d="" fill="#B9B9B8" transform="translate(0,0)"/>
<path d="" fill="#BABAB8" transform="translate(0,0)"/>
<path d="" fill="#BAB9B9" transform="translate(0,0)"/>
<path d="" fill="#B8B8B7" transform="translate(0,0)"/>
<path d="" fill="#BDBCBC" transform="translate(0,0)"/>
<path d="" fill="#BCBBBB" transform="translate(0,0)"/>
<path d="" fill="#B6B7B7" transform="translate(0,0)"/>
<path d="" fill="#BBB9B7" transform="translate(0,0)"/>
<path d="" fill="#BAB8B9" transform="translate(0,0)"/>
<path d="" fill="#BCBBBB" transform="translate(0,0)"/>
<path d="" fill="#B9B8B7" transform="translate(0,0)"/>
<path d="" fill="#B3B3B2" transform="translate(0,0)"/>
<path d="" fill="#B5B6B3" transform="translate(0,0)"/>
<path d="" fill="#B4B3B3" transform="translate(0,0)"/>
<path d="" fill="#B4B4B4" transform="translate(0,0)"/>
<path d="" fill="#B8B7B7" transform="translate(0,0)"/>
<path d="" fill="#BCBABA" transform="translate(0,0)"/>
<path d="" fill="#BBBCB9" transform="translate(0,0)"/>
<path d="" fill="#B9BAB6" transform="translate(0,0)"/>
<path d="" fill="#B9B7B6" transform="translate(0,0)"/>
<path d="" fill="#B9B9B8" transform="translate(0,0)"/>
<path d="" fill="#B4B4B4" transform="translate(0,0)"/>
<path d="" fill="#B5B3B3" transform="translate(0,0)"/>
</svg>
